<mxfile host="Electron" agent="Mozilla/5.0 (Windows NT 10.0; Win64; x64) AppleWebKit/537.36 (KHTML, like Gecko) draw.io/27.0.9 Chrome/134.0.6998.205 Electron/35.4.0 Safari/537.36" version="27.0.9" pages="4">
  <diagram id="W5bx08cZZ7v7f4tbOv1-" name="Functional Architecture">
    <mxGraphModel dx="359" dy="618" grid="1" gridSize="10" guides="1" tooltips="1" connect="1" arrows="1" fold="1" page="1" pageScale="1" pageWidth="827" pageHeight="1169" math="0" shadow="0">
      <root>
        <mxCell id="0" />
        <mxCell id="1" parent="0" />
        <mxCell id="JuSISAW7sIvU3hPseay5-13" value="Functional Architecture" style="shape=table;childLayout=tableLayout;startSize=40;collapsible=0;recursiveResize=0;expand=0;" parent="1" vertex="1">
          <mxGeometry x="120" y="200" width="519.9999999999999" height="280" as="geometry" />
        </mxCell>
        <mxCell id="JuSISAW7sIvU3hPseay5-14" value="" style="shape=tableRow;horizontal=0;swimlaneHead=0;swimlaneBody=0;top=0;left=0;strokeColor=inherit;bottom=0;right=0;dropTarget=0;fontStyle=0;fillColor=none;points=[[0,0.5],[1,0.5]];portConstraint=eastwest;startSize=0;collapsible=0;recursiveResize=0;expand=0;" parent="JuSISAW7sIvU3hPseay5-13" vertex="1">
          <mxGeometry y="40" width="519.9999999999999" height="80" as="geometry" />
        </mxCell>
        <mxCell id="JuSISAW7sIvU3hPseay5-15" value="" style="swimlane;swimlaneHead=0;swimlaneBody=0;fontStyle=0;strokeColor=inherit;connectable=0;fillColor=none;startSize=0;collapsible=0;recursiveResize=0;expand=0;" parent="JuSISAW7sIvU3hPseay5-14" vertex="1">
          <mxGeometry width="200" height="80" as="geometry">
            <mxRectangle width="200" height="80" as="alternateBounds" />
          </mxGeometry>
        </mxCell>
        <mxCell id="xKHZZtnygQGAmj8g7xMl-1" value="&lt;font style=&quot;font-size: 20px;&quot;&gt;Honeypot&lt;/font&gt;" style="whiteSpace=wrap;html=1;" parent="JuSISAW7sIvU3hPseay5-15" vertex="1">
          <mxGeometry y="1" width="200" height="79" as="geometry" />
        </mxCell>
        <mxCell id="JuSISAW7sIvU3hPseay5-16" value="" style="swimlane;swimlaneHead=0;swimlaneBody=0;fontStyle=0;strokeColor=inherit;connectable=0;fillColor=none;startSize=0;collapsible=0;recursiveResize=0;expand=0;" parent="JuSISAW7sIvU3hPseay5-14" vertex="1">
          <mxGeometry x="200" width="320" height="80" as="geometry">
            <mxRectangle width="320" height="80" as="alternateBounds" />
          </mxGeometry>
        </mxCell>
        <mxCell id="xKHZZtnygQGAmj8g7xMl-2" value="&lt;span style=&quot;font-size: 20px;&quot;&gt;Đánh lừa attacker để khai thác kỹ thuật mới&lt;/span&gt;" style="whiteSpace=wrap;html=1;" parent="JuSISAW7sIvU3hPseay5-16" vertex="1">
          <mxGeometry y="1" width="320" height="79" as="geometry" />
        </mxCell>
        <mxCell id="JuSISAW7sIvU3hPseay5-17" value="" style="shape=tableRow;horizontal=0;swimlaneHead=0;swimlaneBody=0;top=0;left=0;strokeColor=inherit;bottom=0;right=0;dropTarget=0;fontStyle=0;fillColor=none;points=[[0,0.5],[1,0.5]];portConstraint=eastwest;startSize=0;collapsible=0;recursiveResize=0;expand=0;" parent="JuSISAW7sIvU3hPseay5-13" vertex="1">
          <mxGeometry y="120" width="519.9999999999999" height="80" as="geometry" />
        </mxCell>
        <mxCell id="JuSISAW7sIvU3hPseay5-18" value="" style="swimlane;swimlaneHead=0;swimlaneBody=0;fontStyle=0;connectable=0;strokeColor=inherit;fillColor=none;startSize=0;collapsible=0;recursiveResize=0;expand=0;" parent="JuSISAW7sIvU3hPseay5-17" vertex="1">
          <mxGeometry width="200" height="80" as="geometry">
            <mxRectangle width="200" height="80" as="alternateBounds" />
          </mxGeometry>
        </mxCell>
        <mxCell id="xKHZZtnygQGAmj8g7xMl-3" value="&lt;font style=&quot;font-size: 20px;&quot;&gt;Network Traffic Control&lt;/font&gt;" style="whiteSpace=wrap;html=1;" parent="JuSISAW7sIvU3hPseay5-18" vertex="1">
          <mxGeometry width="200" height="80" as="geometry" />
        </mxCell>
        <mxCell id="JuSISAW7sIvU3hPseay5-19" value="" style="swimlane;swimlaneHead=0;swimlaneBody=0;fontStyle=0;connectable=0;strokeColor=inherit;fillColor=none;startSize=0;collapsible=0;recursiveResize=0;expand=0;" parent="JuSISAW7sIvU3hPseay5-17" vertex="1">
          <mxGeometry x="200" width="320" height="80" as="geometry">
            <mxRectangle width="320" height="80" as="alternateBounds" />
          </mxGeometry>
        </mxCell>
        <mxCell id="xKHZZtnygQGAmj8g7xMl-4" value="&lt;font style=&quot;font-size: 20px;&quot;&gt;Kiểm soát truy cập, NAT, lọc gói tin&lt;/font&gt;" style="whiteSpace=wrap;html=1;" parent="JuSISAW7sIvU3hPseay5-19" vertex="1">
          <mxGeometry width="320" height="80" as="geometry" />
        </mxCell>
        <mxCell id="JuSISAW7sIvU3hPseay5-20" value="" style="shape=tableRow;horizontal=0;swimlaneHead=0;swimlaneBody=0;top=0;left=0;strokeColor=inherit;bottom=0;right=0;dropTarget=0;fontStyle=0;fillColor=none;points=[[0,0.5],[1,0.5]];portConstraint=eastwest;startSize=0;collapsible=0;recursiveResize=0;expand=0;" parent="JuSISAW7sIvU3hPseay5-13" vertex="1">
          <mxGeometry y="200" width="519.9999999999999" height="80" as="geometry" />
        </mxCell>
        <mxCell id="JuSISAW7sIvU3hPseay5-21" value="" style="swimlane;swimlaneHead=0;swimlaneBody=0;fontStyle=0;connectable=0;strokeColor=inherit;fillColor=none;startSize=0;collapsible=0;recursiveResize=0;expand=0;" parent="JuSISAW7sIvU3hPseay5-20" vertex="1">
          <mxGeometry width="200" height="80" as="geometry">
            <mxRectangle width="200" height="80" as="alternateBounds" />
          </mxGeometry>
        </mxCell>
        <mxCell id="xKHZZtnygQGAmj8g7xMl-5" value="&lt;span style=&quot;font-size: 20px;&quot;&gt;Intrusion Detection Module&lt;/span&gt;" style="whiteSpace=wrap;html=1;" parent="JuSISAW7sIvU3hPseay5-21" vertex="1">
          <mxGeometry width="200" height="80" as="geometry" />
        </mxCell>
        <mxCell id="JuSISAW7sIvU3hPseay5-22" value="" style="swimlane;swimlaneHead=0;swimlaneBody=0;fontStyle=0;connectable=0;strokeColor=inherit;fillColor=none;startSize=0;collapsible=0;recursiveResize=0;expand=0;" parent="JuSISAW7sIvU3hPseay5-20" vertex="1">
          <mxGeometry x="200" width="320" height="80" as="geometry">
            <mxRectangle width="320" height="80" as="alternateBounds" />
          </mxGeometry>
        </mxCell>
        <mxCell id="xKHZZtnygQGAmj8g7xMl-6" value="&lt;font style=&quot;font-size: 20px;&quot;&gt;phát hiện xâm nhập&lt;/font&gt;" style="whiteSpace=wrap;html=1;" parent="JuSISAW7sIvU3hPseay5-22" vertex="1">
          <mxGeometry width="320" height="80" as="geometry" />
        </mxCell>
        <mxCell id="-5YSXQOPqyICx6npvXhQ-83" value="Functional Architecture" style="shape=table;childLayout=tableLayout;startSize=40;collapsible=0;recursiveResize=0;expand=0;" parent="1" vertex="1">
          <mxGeometry x="660" y="200" width="520.0000000000001" height="360" as="geometry" />
        </mxCell>
        <mxCell id="-5YSXQOPqyICx6npvXhQ-104" value="" style="shape=tableRow;horizontal=0;swimlaneHead=0;swimlaneBody=0;top=0;left=0;strokeColor=inherit;bottom=0;right=0;dropTarget=0;fontStyle=0;fillColor=none;points=[[0,0.5],[1,0.5]];portConstraint=eastwest;startSize=0;collapsible=0;recursiveResize=0;expand=0;" parent="-5YSXQOPqyICx6npvXhQ-83" vertex="1">
          <mxGeometry y="40" width="520.0000000000001" height="80" as="geometry" />
        </mxCell>
        <mxCell id="-5YSXQOPqyICx6npvXhQ-105" value="" style="swimlane;swimlaneHead=0;swimlaneBody=0;fontStyle=0;connectable=0;strokeColor=inherit;fillColor=none;startSize=0;collapsible=0;recursiveResize=0;expand=0;" parent="-5YSXQOPqyICx6npvXhQ-104" vertex="1">
          <mxGeometry width="200" height="80" as="geometry">
            <mxRectangle width="200" height="80" as="alternateBounds" />
          </mxGeometry>
        </mxCell>
        <mxCell id="-5YSXQOPqyICx6npvXhQ-106" value="&lt;font style=&quot;font-size: 20px;&quot;&gt;User Authentication&lt;/font&gt;" style="whiteSpace=wrap;html=1;" parent="-5YSXQOPqyICx6npvXhQ-105" vertex="1">
          <mxGeometry width="200" height="80" as="geometry" />
        </mxCell>
        <mxCell id="-5YSXQOPqyICx6npvXhQ-107" value="" style="swimlane;swimlaneHead=0;swimlaneBody=0;fontStyle=0;connectable=0;strokeColor=inherit;fillColor=none;startSize=0;collapsible=0;recursiveResize=0;expand=0;" parent="-5YSXQOPqyICx6npvXhQ-104" vertex="1">
          <mxGeometry x="200" width="320" height="80" as="geometry">
            <mxRectangle width="320" height="80" as="alternateBounds" />
          </mxGeometry>
        </mxCell>
        <mxCell id="-5YSXQOPqyICx6npvXhQ-108" value="&lt;font style=&quot;font-size: 20px;&quot;&gt;Quản lý danh tính người dùng trong mạng nội bộ bằng LDAP&lt;/font&gt;" style="whiteSpace=wrap;html=1;" parent="-5YSXQOPqyICx6npvXhQ-107" vertex="1">
          <mxGeometry width="320" height="80" as="geometry" />
        </mxCell>
        <mxCell id="-5YSXQOPqyICx6npvXhQ-109" style="shape=tableRow;horizontal=0;swimlaneHead=0;swimlaneBody=0;top=0;left=0;strokeColor=inherit;bottom=0;right=0;dropTarget=0;fontStyle=0;fillColor=none;points=[[0,0.5],[1,0.5]];portConstraint=eastwest;startSize=0;collapsible=0;recursiveResize=0;expand=0;" parent="-5YSXQOPqyICx6npvXhQ-83" vertex="1">
          <mxGeometry y="120" width="520.0000000000001" height="79" as="geometry" />
        </mxCell>
        <mxCell id="-5YSXQOPqyICx6npvXhQ-110" style="swimlane;swimlaneHead=0;swimlaneBody=0;fontStyle=0;connectable=0;strokeColor=inherit;fillColor=none;startSize=0;collapsible=0;recursiveResize=0;expand=0;" parent="-5YSXQOPqyICx6npvXhQ-109" vertex="1">
          <mxGeometry width="200" height="79" as="geometry">
            <mxRectangle width="200" height="79" as="alternateBounds" />
          </mxGeometry>
        </mxCell>
        <mxCell id="-5YSXQOPqyICx6npvXhQ-111" value="&lt;font style=&quot;font-size: 20px;&quot;&gt;URL Filtering&lt;/font&gt;" style="whiteSpace=wrap;html=1;" parent="-5YSXQOPqyICx6npvXhQ-110" vertex="1">
          <mxGeometry width="200" height="80" as="geometry" />
        </mxCell>
        <mxCell id="-5YSXQOPqyICx6npvXhQ-112" style="swimlane;swimlaneHead=0;swimlaneBody=0;fontStyle=0;connectable=0;strokeColor=inherit;fillColor=none;startSize=0;collapsible=0;recursiveResize=0;expand=0;" parent="-5YSXQOPqyICx6npvXhQ-109" vertex="1">
          <mxGeometry x="200" width="320" height="79" as="geometry">
            <mxRectangle width="320" height="79" as="alternateBounds" />
          </mxGeometry>
        </mxCell>
        <mxCell id="-5YSXQOPqyICx6npvXhQ-113" value="&lt;font style=&quot;font-size: 20px;&quot;&gt;Lọc theo địa chỉ URL&lt;/font&gt;" style="whiteSpace=wrap;html=1;" parent="-5YSXQOPqyICx6npvXhQ-112" vertex="1">
          <mxGeometry width="320" height="80" as="geometry" />
        </mxCell>
        <mxCell id="-5YSXQOPqyICx6npvXhQ-114" style="shape=tableRow;horizontal=0;swimlaneHead=0;swimlaneBody=0;top=0;left=0;strokeColor=inherit;bottom=0;right=0;dropTarget=0;fontStyle=0;fillColor=none;points=[[0,0.5],[1,0.5]];portConstraint=eastwest;startSize=0;collapsible=0;recursiveResize=0;expand=0;" parent="-5YSXQOPqyICx6npvXhQ-83" vertex="1">
          <mxGeometry y="199" width="520.0000000000001" height="81" as="geometry" />
        </mxCell>
        <mxCell id="-5YSXQOPqyICx6npvXhQ-115" style="swimlane;swimlaneHead=0;swimlaneBody=0;fontStyle=0;connectable=0;strokeColor=inherit;fillColor=none;startSize=0;collapsible=0;recursiveResize=0;expand=0;" parent="-5YSXQOPqyICx6npvXhQ-114" vertex="1">
          <mxGeometry width="200" height="81" as="geometry">
            <mxRectangle width="200" height="81" as="alternateBounds" />
          </mxGeometry>
        </mxCell>
        <mxCell id="-5YSXQOPqyICx6npvXhQ-116" value="&lt;font style=&quot;font-size: 20px;&quot;&gt;Threat Intelligence &amp;amp; Incident Response Architecture&lt;/font&gt;" style="whiteSpace=wrap;html=1;" parent="-5YSXQOPqyICx6npvXhQ-115" vertex="1">
          <mxGeometry width="200" height="80" as="geometry" />
        </mxCell>
        <mxCell id="-5YSXQOPqyICx6npvXhQ-117" style="swimlane;swimlaneHead=0;swimlaneBody=0;fontStyle=0;connectable=0;strokeColor=inherit;fillColor=none;startSize=0;collapsible=0;recursiveResize=0;expand=0;" parent="-5YSXQOPqyICx6npvXhQ-114" vertex="1">
          <mxGeometry x="200" width="320" height="81" as="geometry">
            <mxRectangle width="320" height="81" as="alternateBounds" />
          </mxGeometry>
        </mxCell>
        <mxCell id="-5YSXQOPqyICx6npvXhQ-118" value="&lt;font style=&quot;font-size: 20px;&quot;&gt;Thu thập, chia sẻ IOC,&amp;nbsp;Hỗ trợ phân tích mối đe dọa từ IDS và&amp;nbsp; AV,&amp;nbsp;&lt;span style=&quot;background-color: transparent; color: light-dark(rgb(0, 0, 0), rgb(255, 255, 255));&quot;&gt;khai thác event để chặn IP và URL&lt;/span&gt;&lt;/font&gt;" style="whiteSpace=wrap;html=1;" parent="-5YSXQOPqyICx6npvXhQ-117" vertex="1">
          <mxGeometry width="320" height="80" as="geometry" />
        </mxCell>
        <mxCell id="-5YSXQOPqyICx6npvXhQ-119" style="shape=tableRow;horizontal=0;swimlaneHead=0;swimlaneBody=0;top=0;left=0;strokeColor=inherit;bottom=0;right=0;dropTarget=0;fontStyle=0;fillColor=none;points=[[0,0.5],[1,0.5]];portConstraint=eastwest;startSize=0;collapsible=0;recursiveResize=0;expand=0;" parent="-5YSXQOPqyICx6npvXhQ-83" vertex="1">
          <mxGeometry y="280" width="520.0000000000001" height="80" as="geometry" />
        </mxCell>
        <mxCell id="-5YSXQOPqyICx6npvXhQ-120" style="swimlane;swimlaneHead=0;swimlaneBody=0;fontStyle=0;connectable=0;strokeColor=inherit;fillColor=none;startSize=0;collapsible=0;recursiveResize=0;expand=0;" parent="-5YSXQOPqyICx6npvXhQ-119" vertex="1">
          <mxGeometry width="200" height="80" as="geometry">
            <mxRectangle width="200" height="80" as="alternateBounds" />
          </mxGeometry>
        </mxCell>
        <mxCell id="-5YSXQOPqyICx6npvXhQ-121" value="&lt;font style=&quot;font-size: 20px;&quot;&gt;AI-based Log Analysis &amp;amp; Threat Event Generation&lt;/font&gt;" style="whiteSpace=wrap;html=1;" parent="-5YSXQOPqyICx6npvXhQ-120" vertex="1">
          <mxGeometry width="200" height="80" as="geometry" />
        </mxCell>
        <mxCell id="-5YSXQOPqyICx6npvXhQ-122" style="swimlane;swimlaneHead=0;swimlaneBody=0;fontStyle=0;connectable=0;strokeColor=inherit;fillColor=none;startSize=0;collapsible=0;recursiveResize=0;expand=0;" parent="-5YSXQOPqyICx6npvXhQ-119" vertex="1">
          <mxGeometry x="200" width="320" height="80" as="geometry">
            <mxRectangle width="320" height="80" as="alternateBounds" />
          </mxGeometry>
        </mxCell>
        <mxCell id="-5YSXQOPqyICx6npvXhQ-123" value="&lt;font style=&quot;font-size: 20px;&quot;&gt;Theo dõi, phân tích log và tạo event tự động&lt;/font&gt;" style="whiteSpace=wrap;html=1;" parent="-5YSXQOPqyICx6npvXhQ-122" vertex="1">
          <mxGeometry width="320" height="80" as="geometry" />
        </mxCell>
      </root>
    </mxGraphModel>
  </diagram>
  <diagram id="NOrHJPYJ1hd9nbYk1TLY" name="Application/Data Architecture">
    <mxGraphModel dx="1281" dy="626" grid="1" gridSize="10" guides="1" tooltips="1" connect="1" arrows="1" fold="1" page="1" pageScale="1" pageWidth="827" pageHeight="1169" math="0" shadow="0">
      <root>
        <mxCell id="0" />
        <mxCell id="1" parent="0" />
        <mxCell id="ZjFUTA1ldBLpVZjNxadu-1" value="&lt;font style=&quot;font-size: 20px;&quot;&gt;USER&lt;/font&gt;" style="rounded=0;whiteSpace=wrap;html=1;" parent="1" vertex="1">
          <mxGeometry y="340" width="120" height="80" as="geometry" />
        </mxCell>
        <mxCell id="ZjFUTA1ldBLpVZjNxadu-2" value="&lt;font style=&quot;font-size: 20px;&quot;&gt;Squid proxy&lt;/font&gt;" style="rounded=0;whiteSpace=wrap;html=1;" parent="1" vertex="1">
          <mxGeometry x="440" y="240" width="120" height="80" as="geometry" />
        </mxCell>
        <mxCell id="ZjFUTA1ldBLpVZjNxadu-3" value="&lt;font style=&quot;font-size: 20px;&quot;&gt;LDAP&lt;/font&gt;" style="rounded=0;whiteSpace=wrap;html=1;" parent="1" vertex="1">
          <mxGeometry x="440" y="120" width="120" height="80" as="geometry" />
        </mxCell>
        <mxCell id="ZjFUTA1ldBLpVZjNxadu-4" value="&lt;font style=&quot;font-size: 20px;&quot;&gt;Internet&lt;/font&gt;" style="ellipse;shape=cloud;whiteSpace=wrap;html=1;direction=west;" parent="1" vertex="1">
          <mxGeometry x="640" y="280" width="159" height="120" as="geometry" />
        </mxCell>
        <mxCell id="ZjFUTA1ldBLpVZjNxadu-6" value="&lt;font style=&quot;font-size: 20px;&quot;&gt;BlackList&lt;/font&gt;" style="ellipse;whiteSpace=wrap;html=1;" parent="1" vertex="1">
          <mxGeometry x="320" y="240" width="80" height="80" as="geometry" />
        </mxCell>
        <mxCell id="ZjFUTA1ldBLpVZjNxadu-12" value="" style="endArrow=none;html=1;rounded=0;entryX=0;entryY=0.5;entryDx=0;entryDy=0;exitX=1;exitY=0.5;exitDx=0;exitDy=0;" parent="1" source="ZjFUTA1ldBLpVZjNxadu-6" target="ZjFUTA1ldBLpVZjNxadu-2" edge="1">
          <mxGeometry width="50" height="50" relative="1" as="geometry">
            <mxPoint x="460" y="360" as="sourcePoint" />
            <mxPoint x="320" y="420" as="targetPoint" />
          </mxGeometry>
        </mxCell>
        <mxCell id="ZjFUTA1ldBLpVZjNxadu-13" value="" style="endArrow=classic;startArrow=classic;html=1;rounded=0;entryX=0.5;entryY=1;entryDx=0;entryDy=0;exitX=0.5;exitY=0;exitDx=0;exitDy=0;" parent="1" source="ZjFUTA1ldBLpVZjNxadu-2" target="ZjFUTA1ldBLpVZjNxadu-3" edge="1">
          <mxGeometry width="50" height="50" relative="1" as="geometry">
            <mxPoint x="460" y="280" as="sourcePoint" />
            <mxPoint x="460" y="240" as="targetPoint" />
          </mxGeometry>
        </mxCell>
        <mxCell id="ZjFUTA1ldBLpVZjNxadu-17" value="&lt;font style=&quot;font-size: 20px;&quot;&gt;IPTABLES&lt;/font&gt;" style="rounded=0;whiteSpace=wrap;html=1;" parent="1" vertex="1">
          <mxGeometry x="160" y="440" width="120" height="80" as="geometry" />
        </mxCell>
        <mxCell id="ZjFUTA1ldBLpVZjNxadu-19" value="&lt;font style=&quot;font-size: 20px;&quot;&gt;Suricata&lt;/font&gt;" style="rounded=0;whiteSpace=wrap;html=1;" parent="1" vertex="1">
          <mxGeometry x="440" y="440" width="120" height="80" as="geometry" />
        </mxCell>
        <mxCell id="ZjFUTA1ldBLpVZjNxadu-27" value="&lt;font style=&quot;font-size: 20px;&quot;&gt;MISP&lt;/font&gt;" style="rounded=0;whiteSpace=wrap;html=1;" parent="1" vertex="1">
          <mxGeometry x="160" y="240" width="120" height="80" as="geometry" />
        </mxCell>
        <mxCell id="ZjFUTA1ldBLpVZjNxadu-28" value="" style="endArrow=classic;startArrow=classic;html=1;rounded=0;" parent="1" target="ZjFUTA1ldBLpVZjNxadu-4" edge="1">
          <mxGeometry width="50" height="50" relative="1" as="geometry">
            <mxPoint x="560" y="340" as="sourcePoint" />
            <mxPoint x="640" y="360" as="targetPoint" />
          </mxGeometry>
        </mxCell>
        <mxCell id="j1oyulVFh6VBeBpYVi5x-2" value="" style="edgeLabel;html=1;align=center;verticalAlign=middle;resizable=0;points=[];strokeColor=default;fontFamily=Helvetica;fontSize=12;fontColor=default;fillColor=default;" parent="ZjFUTA1ldBLpVZjNxadu-28" vertex="1" connectable="0">
          <mxGeometry x="-0.17" y="-3" relative="1" as="geometry">
            <mxPoint as="offset" />
          </mxGeometry>
        </mxCell>
        <mxCell id="j1oyulVFh6VBeBpYVi5x-3" value="" style="edgeLabel;html=1;align=center;verticalAlign=middle;resizable=0;points=[];strokeColor=default;fontFamily=Helvetica;fontSize=12;fontColor=default;fillColor=default;" parent="ZjFUTA1ldBLpVZjNxadu-28" vertex="1" connectable="0">
          <mxGeometry x="0.08" relative="1" as="geometry">
            <mxPoint as="offset" />
          </mxGeometry>
        </mxCell>
        <mxCell id="7PLIG5sxC8z_hRQhBCFo-20" value="&lt;font style=&quot;font-size: 18px;&quot;&gt;1&lt;/font&gt;" style="edgeLabel;html=1;align=center;verticalAlign=middle;resizable=0;points=[];" parent="ZjFUTA1ldBLpVZjNxadu-28" vertex="1" connectable="0">
          <mxGeometry x="-0.0194" relative="1" as="geometry">
            <mxPoint as="offset" />
          </mxGeometry>
        </mxCell>
        <mxCell id="ZjFUTA1ldBLpVZjNxadu-32" value="" style="endArrow=none;html=1;rounded=0;" parent="1" edge="1">
          <mxGeometry width="50" height="50" relative="1" as="geometry">
            <mxPoint x="160" y="240" as="sourcePoint" />
            <mxPoint x="160" y="240" as="targetPoint" />
            <Array as="points">
              <mxPoint x="160" y="520" />
              <mxPoint x="240" y="520" />
              <mxPoint x="560" y="520" />
              <mxPoint x="560" y="240" />
            </Array>
          </mxGeometry>
        </mxCell>
        <mxCell id="ZjFUTA1ldBLpVZjNxadu-34" value="&lt;font style=&quot;font-size: 20px;&quot;&gt;ATTACKER&lt;/font&gt;" style="rounded=0;whiteSpace=wrap;html=1;" parent="1" vertex="1">
          <mxGeometry x="640" y="440" width="159" height="80" as="geometry" />
        </mxCell>
        <mxCell id="ZjFUTA1ldBLpVZjNxadu-35" value="" style="endArrow=classic;startArrow=classic;html=1;rounded=0;entryX=0.5;entryY=0;entryDx=0;entryDy=0;" parent="1" source="ZjFUTA1ldBLpVZjNxadu-4" target="ZjFUTA1ldBLpVZjNxadu-34" edge="1">
          <mxGeometry width="50" height="50" relative="1" as="geometry">
            <mxPoint x="800" y="440" as="sourcePoint" />
            <mxPoint x="905" y="450" as="targetPoint" />
          </mxGeometry>
        </mxCell>
        <mxCell id="ZjFUTA1ldBLpVZjNxadu-36" value="" style="endArrow=classic;html=1;rounded=0;entryX=0;entryY=1;entryDx=0;entryDy=0;exitX=1;exitY=0;exitDx=0;exitDy=0;" parent="1" source="ZjFUTA1ldBLpVZjNxadu-17" target="ZjFUTA1ldBLpVZjNxadu-2" edge="1">
          <mxGeometry width="50" height="50" relative="1" as="geometry">
            <mxPoint x="300" y="520" as="sourcePoint" />
            <mxPoint x="350" y="470" as="targetPoint" />
          </mxGeometry>
        </mxCell>
        <mxCell id="7PLIG5sxC8z_hRQhBCFo-15" value="&lt;font style=&quot;font-size: 18px;&quot;&gt;3&lt;/font&gt;" style="edgeLabel;html=1;align=center;verticalAlign=middle;resizable=0;points=[];" parent="ZjFUTA1ldBLpVZjNxadu-36" vertex="1" connectable="0">
          <mxGeometry x="-0.5124" y="-1" relative="1" as="geometry">
            <mxPoint as="offset" />
          </mxGeometry>
        </mxCell>
        <mxCell id="ZjFUTA1ldBLpVZjNxadu-37" value="" style="endArrow=classic;html=1;rounded=0;entryX=0.5;entryY=0;entryDx=0;entryDy=0;exitX=0.5;exitY=1;exitDx=0;exitDy=0;" parent="1" source="ZjFUTA1ldBLpVZjNxadu-27" target="ZjFUTA1ldBLpVZjNxadu-17" edge="1">
          <mxGeometry width="50" height="50" relative="1" as="geometry">
            <mxPoint x="220" y="370" as="sourcePoint" />
            <mxPoint x="350" y="330" as="targetPoint" />
            <Array as="points" />
          </mxGeometry>
        </mxCell>
        <mxCell id="7PLIG5sxC8z_hRQhBCFo-17" value="&lt;font style=&quot;font-size: 18px;&quot;&gt;5&lt;/font&gt;" style="edgeLabel;html=1;align=center;verticalAlign=middle;resizable=0;points=[];" parent="ZjFUTA1ldBLpVZjNxadu-37" vertex="1" connectable="0">
          <mxGeometry x="-0.01" relative="1" as="geometry">
            <mxPoint as="offset" />
          </mxGeometry>
        </mxCell>
        <mxCell id="ZjFUTA1ldBLpVZjNxadu-38" value="" style="endArrow=classic;html=1;rounded=0;exitX=1;exitY=0.5;exitDx=0;exitDy=0;" parent="1" source="ZjFUTA1ldBLpVZjNxadu-1" edge="1">
          <mxGeometry width="50" height="50" relative="1" as="geometry">
            <mxPoint x="130" y="380" as="sourcePoint" />
            <mxPoint x="160" y="380" as="targetPoint" />
          </mxGeometry>
        </mxCell>
        <mxCell id="7PLIG5sxC8z_hRQhBCFo-13" value="&lt;font style=&quot;font-size: 18px;&quot;&gt;1&lt;/font&gt;" style="edgeLabel;html=1;align=center;verticalAlign=middle;resizable=0;points=[];" parent="ZjFUTA1ldBLpVZjNxadu-38" vertex="1" connectable="0">
          <mxGeometry x="-0.005" y="-1" relative="1" as="geometry">
            <mxPoint as="offset" />
          </mxGeometry>
        </mxCell>
        <mxCell id="rvyhzu7kZMqw6Y3KACbU-1" value="" style="endArrow=classic;startArrow=classic;html=1;rounded=0;entryX=0;entryY=0.5;entryDx=0;entryDy=0;exitX=1;exitY=0.5;exitDx=0;exitDy=0;" parent="1" source="ZjFUTA1ldBLpVZjNxadu-17" target="ZjFUTA1ldBLpVZjNxadu-19" edge="1">
          <mxGeometry width="50" height="50" relative="1" as="geometry">
            <mxPoint x="220" y="400" as="sourcePoint" />
            <mxPoint x="220" y="280" as="targetPoint" />
          </mxGeometry>
        </mxCell>
        <mxCell id="j1oyulVFh6VBeBpYVi5x-4" value="" style="edgeLabel;html=1;align=center;verticalAlign=middle;resizable=0;points=[];strokeColor=default;fontFamily=Helvetica;fontSize=12;fontColor=default;fillColor=default;" parent="rvyhzu7kZMqw6Y3KACbU-1" vertex="1" connectable="0">
          <mxGeometry x="-0.04" relative="1" as="geometry">
            <mxPoint as="offset" />
          </mxGeometry>
        </mxCell>
        <mxCell id="j1oyulVFh6VBeBpYVi5x-6" value="" style="edgeLabel;html=1;align=center;verticalAlign=middle;resizable=0;points=[];strokeColor=default;fontFamily=Helvetica;fontSize=12;fontColor=default;fillColor=default;" parent="rvyhzu7kZMqw6Y3KACbU-1" vertex="1" connectable="0">
          <mxGeometry x="-0.04" y="-2" relative="1" as="geometry">
            <mxPoint as="offset" />
          </mxGeometry>
        </mxCell>
        <mxCell id="j1oyulVFh6VBeBpYVi5x-7" value="" style="edgeLabel;html=1;align=center;verticalAlign=middle;resizable=0;points=[];strokeColor=default;fontFamily=Helvetica;fontSize=12;fontColor=default;fillColor=default;" parent="rvyhzu7kZMqw6Y3KACbU-1" vertex="1" connectable="0">
          <mxGeometry x="-0.09" y="-1" relative="1" as="geometry">
            <mxPoint as="offset" />
          </mxGeometry>
        </mxCell>
        <mxCell id="j1oyulVFh6VBeBpYVi5x-8" value="" style="edgeLabel;html=1;align=center;verticalAlign=middle;resizable=0;points=[];strokeColor=default;fontFamily=Helvetica;fontSize=12;fontColor=default;fillColor=default;" parent="rvyhzu7kZMqw6Y3KACbU-1" vertex="1" connectable="0">
          <mxGeometry x="0.01" y="-3" relative="1" as="geometry">
            <mxPoint as="offset" />
          </mxGeometry>
        </mxCell>
        <mxCell id="7PLIG5sxC8z_hRQhBCFo-14" value="&lt;font style=&quot;font-size: 18px;&quot;&gt;2&lt;/font&gt;" style="edgeLabel;html=1;align=center;verticalAlign=middle;resizable=0;points=[];" parent="rvyhzu7kZMqw6Y3KACbU-1" vertex="1" connectable="0">
          <mxGeometry x="-0.0025" relative="1" as="geometry">
            <mxPoint as="offset" />
          </mxGeometry>
        </mxCell>
        <mxCell id="rvyhzu7kZMqw6Y3KACbU-14" value="" style="endArrow=classic;html=1;rounded=0;entryX=0;entryY=0.5;entryDx=0;entryDy=0;exitX=1;exitY=0.5;exitDx=0;exitDy=0;" parent="1" source="ZjFUTA1ldBLpVZjNxadu-27" target="ZjFUTA1ldBLpVZjNxadu-6" edge="1">
          <mxGeometry width="50" height="50" relative="1" as="geometry">
            <mxPoint x="380" y="280" as="sourcePoint" />
            <mxPoint x="460" y="410" as="targetPoint" />
          </mxGeometry>
        </mxCell>
        <mxCell id="7PLIG5sxC8z_hRQhBCFo-18" value="&lt;font style=&quot;font-size: 18px;&quot;&gt;5&lt;/font&gt;" style="edgeLabel;html=1;align=center;verticalAlign=middle;resizable=0;points=[];" parent="rvyhzu7kZMqw6Y3KACbU-14" vertex="1" connectable="0">
          <mxGeometry x="-0.06" y="-1" relative="1" as="geometry">
            <mxPoint as="offset" />
          </mxGeometry>
        </mxCell>
        <mxCell id="7PLIG5sxC8z_hRQhBCFo-2" value="" style="endArrow=classic;startArrow=classic;html=1;rounded=0;entryX=0;entryY=0;entryDx=0;entryDy=0;exitX=1;exitY=1;exitDx=0;exitDy=0;" parent="1" source="ZjFUTA1ldBLpVZjNxadu-27" target="ZjFUTA1ldBLpVZjNxadu-19" edge="1">
          <mxGeometry width="50" height="50" relative="1" as="geometry">
            <mxPoint x="290" y="440" as="sourcePoint" />
            <mxPoint x="290" y="520" as="targetPoint" />
          </mxGeometry>
        </mxCell>
        <mxCell id="7PLIG5sxC8z_hRQhBCFo-3" value="" style="edgeLabel;html=1;align=center;verticalAlign=middle;resizable=0;points=[];strokeColor=default;fontFamily=Helvetica;fontSize=12;fontColor=default;fillColor=default;" parent="7PLIG5sxC8z_hRQhBCFo-2" vertex="1" connectable="0">
          <mxGeometry x="-0.04" relative="1" as="geometry">
            <mxPoint as="offset" />
          </mxGeometry>
        </mxCell>
        <mxCell id="7PLIG5sxC8z_hRQhBCFo-4" value="" style="edgeLabel;html=1;align=center;verticalAlign=middle;resizable=0;points=[];strokeColor=default;fontFamily=Helvetica;fontSize=12;fontColor=default;fillColor=default;" parent="7PLIG5sxC8z_hRQhBCFo-2" vertex="1" connectable="0">
          <mxGeometry x="-0.04" y="-2" relative="1" as="geometry">
            <mxPoint as="offset" />
          </mxGeometry>
        </mxCell>
        <mxCell id="7PLIG5sxC8z_hRQhBCFo-5" value="" style="edgeLabel;html=1;align=center;verticalAlign=middle;resizable=0;points=[];strokeColor=default;fontFamily=Helvetica;fontSize=12;fontColor=default;fillColor=default;" parent="7PLIG5sxC8z_hRQhBCFo-2" vertex="1" connectable="0">
          <mxGeometry x="-0.09" y="-1" relative="1" as="geometry">
            <mxPoint as="offset" />
          </mxGeometry>
        </mxCell>
        <mxCell id="7PLIG5sxC8z_hRQhBCFo-6" value="" style="edgeLabel;html=1;align=center;verticalAlign=middle;resizable=0;points=[];strokeColor=default;fontFamily=Helvetica;fontSize=12;fontColor=default;fillColor=default;" parent="7PLIG5sxC8z_hRQhBCFo-2" vertex="1" connectable="0">
          <mxGeometry x="0.01" y="-3" relative="1" as="geometry">
            <mxPoint as="offset" />
          </mxGeometry>
        </mxCell>
        <mxCell id="7PLIG5sxC8z_hRQhBCFo-16" value="&lt;font style=&quot;font-size: 18px;&quot;&gt;4&lt;/font&gt;" style="edgeLabel;html=1;align=center;verticalAlign=middle;resizable=0;points=[];" parent="7PLIG5sxC8z_hRQhBCFo-2" vertex="1" connectable="0">
          <mxGeometry x="0.4996" relative="1" as="geometry">
            <mxPoint as="offset" />
          </mxGeometry>
        </mxCell>
        <mxCell id="7PLIG5sxC8z_hRQhBCFo-7" value="&lt;font style=&quot;font-size: 20px;&quot;&gt;Honeypot&lt;/font&gt;" style="rounded=0;whiteSpace=wrap;html=1;" parent="1" vertex="1">
          <mxGeometry x="160" y="120" width="120" height="80" as="geometry" />
        </mxCell>
        <mxCell id="7PLIG5sxC8z_hRQhBCFo-8" value="" style="endArrow=classic;html=1;rounded=0;exitX=0.5;exitY=1;exitDx=0;exitDy=0;" parent="1" source="7PLIG5sxC8z_hRQhBCFo-7" target="ZjFUTA1ldBLpVZjNxadu-27" edge="1">
          <mxGeometry width="50" height="50" relative="1" as="geometry">
            <mxPoint x="320" y="190" as="sourcePoint" />
            <mxPoint x="320" y="310" as="targetPoint" />
            <Array as="points" />
          </mxGeometry>
        </mxCell>
        <mxCell id="7PLIG5sxC8z_hRQhBCFo-19" value="&lt;font style=&quot;font-size: 18px;&quot;&gt;6&lt;/font&gt;" style="edgeLabel;html=1;align=center;verticalAlign=middle;resizable=0;points=[];" parent="7PLIG5sxC8z_hRQhBCFo-8" vertex="1" connectable="0">
          <mxGeometry x="-0.2" relative="1" as="geometry">
            <mxPoint as="offset" />
          </mxGeometry>
        </mxCell>
        <mxCell id="7PLIG5sxC8z_hRQhBCFo-10" value="&lt;font style=&quot;font-size: 18px;&quot;&gt;&lt;b&gt;Next Generation Firewall&lt;/b&gt;&lt;/font&gt;" style="text;html=1;align=center;verticalAlign=middle;resizable=0;points=[];autosize=1;strokeColor=none;fillColor=none;" parent="1" vertex="1">
          <mxGeometry x="245" y="360" width="230" height="40" as="geometry" />
        </mxCell>
      </root>
    </mxGraphModel>
  </diagram>
  <diagram name="Tổng Quan" id="fGnqYOuXnJ0sXflm6pWQ">
    <mxGraphModel dx="3156" dy="1138" grid="1" gridSize="10" guides="1" tooltips="1" connect="1" arrows="1" fold="1" page="1" pageScale="1" pageWidth="827" pageHeight="1169" math="0" shadow="0">
      <root>
        <mxCell id="0" />
        <mxCell id="1" parent="0" />
        <mxCell id="E72xjIkjWtBL2fp1cBYB-2" value="" style="fontColor=#0066CC;verticalAlign=top;verticalLabelPosition=bottom;labelPosition=center;align=center;html=1;outlineConnect=0;fillColor=#CCCCCC;strokeColor=#6881B3;gradientColor=none;gradientDirection=north;strokeWidth=2;shape=mxgraph.networks.pc;" parent="1" vertex="1">
          <mxGeometry x="-802.5" y="645" width="160" height="120" as="geometry" />
        </mxCell>
        <mxCell id="E72xjIkjWtBL2fp1cBYB-3" value="cc" style="fontColor=#0066CC;verticalAlign=top;verticalLabelPosition=bottom;labelPosition=center;align=center;html=1;outlineConnect=0;fillColor=#CCCCCC;strokeColor=#6881B3;gradientColor=none;gradientDirection=north;strokeWidth=2;shape=mxgraph.networks.pc;" parent="1" vertex="1">
          <mxGeometry x="-362.5" y="360" width="160" height="120" as="geometry" />
        </mxCell>
        <mxCell id="E72xjIkjWtBL2fp1cBYB-4" value="" style="fontColor=#0066CC;verticalAlign=top;verticalLabelPosition=bottom;labelPosition=center;align=center;html=1;outlineConnect=0;fillColor=#CCCCCC;strokeColor=#6881B3;gradientColor=none;gradientDirection=north;strokeWidth=2;shape=mxgraph.networks.firewall;" parent="1" vertex="1">
          <mxGeometry x="-559.5" y="595" width="200" height="200" as="geometry" />
        </mxCell>
        <mxCell id="E72xjIkjWtBL2fp1cBYB-10" value="&lt;span style=&quot;font-size: 20px;&quot;&gt;VM - User&lt;/span&gt;" style="text;html=1;align=center;verticalAlign=middle;whiteSpace=wrap;rounded=0;" parent="1" vertex="1">
          <mxGeometry x="-762.5" y="660" width="120" height="70" as="geometry" />
        </mxCell>
        <mxCell id="E72xjIkjWtBL2fp1cBYB-11" value="&lt;font style=&quot;font-size: 20px;&quot;&gt;VM - LDAP&lt;/font&gt;" style="text;html=1;align=center;verticalAlign=middle;whiteSpace=wrap;rounded=0;" parent="1" vertex="1">
          <mxGeometry x="-322.5" y="370" width="120" height="70" as="geometry" />
        </mxCell>
        <mxCell id="E72xjIkjWtBL2fp1cBYB-28" value="" style="endArrow=classic;startArrow=classic;html=1;rounded=0;exitX=1;exitY=0.5;exitDx=0;exitDy=0;exitPerimeter=0;" parent="1" source="E72xjIkjWtBL2fp1cBYB-4" target="E72xjIkjWtBL2fp1cBYB-47" edge="1">
          <mxGeometry width="50" height="50" relative="1" as="geometry">
            <mxPoint x="-459.5" y="491.53999999999996" as="sourcePoint" />
            <mxPoint x="-460.5" y="445" as="targetPoint" />
          </mxGeometry>
        </mxCell>
        <mxCell id="E72xjIkjWtBL2fp1cBYB-29" value="" style="endArrow=classic;startArrow=classic;html=1;rounded=0;exitX=1;exitY=0.5;exitDx=0;exitDy=0;entryX=0;entryY=0.5;entryDx=0;entryDy=0;entryPerimeter=0;" parent="1" source="E72xjIkjWtBL2fp1cBYB-10" target="E72xjIkjWtBL2fp1cBYB-4" edge="1">
          <mxGeometry width="50" height="50" relative="1" as="geometry">
            <mxPoint x="-649.5" y="695" as="sourcePoint" />
            <mxPoint x="-869.5" y="575" as="targetPoint" />
          </mxGeometry>
        </mxCell>
        <mxCell id="E72xjIkjWtBL2fp1cBYB-47" value="" style="fontColor=#0066CC;verticalAlign=top;verticalLabelPosition=bottom;labelPosition=center;align=center;html=1;outlineConnect=0;fillColor=#CCCCCC;strokeColor=#6881B3;gradientColor=none;gradientDirection=north;strokeWidth=2;shape=mxgraph.networks.laptop;direction=east;" parent="1" vertex="1">
          <mxGeometry x="-283.63" y="630" width="241.5" height="137.5" as="geometry" />
        </mxCell>
        <mxCell id="E72xjIkjWtBL2fp1cBYB-48" value="&lt;font style=&quot;font-size: 30px;&quot;&gt;Attacker&lt;/font&gt;" style="text;html=1;align=center;verticalAlign=middle;whiteSpace=wrap;rounded=0;" parent="1" vertex="1">
          <mxGeometry x="-197.88" y="670" width="60" height="27.5" as="geometry" />
        </mxCell>
        <mxCell id="E72xjIkjWtBL2fp1cBYB-50" value="&lt;font style=&quot;font-size: 30px;&quot;&gt;192.168.255.128&lt;/font&gt;" style="text;html=1;align=center;verticalAlign=middle;whiteSpace=wrap;rounded=0;" parent="1" vertex="1">
          <mxGeometry x="-280" y="775" width="224.25" height="51" as="geometry" />
        </mxCell>
        <mxCell id="E72xjIkjWtBL2fp1cBYB-51" value="&lt;font style=&quot;font-size: 30px;&quot;&gt;192.168.100.20&lt;/font&gt;" style="text;html=1;align=center;verticalAlign=middle;whiteSpace=wrap;rounded=0;fontSize=20;" parent="1" vertex="1">
          <mxGeometry x="-820" y="785" width="195" height="30" as="geometry" />
        </mxCell>
        <mxCell id="E72xjIkjWtBL2fp1cBYB-52" value="&lt;font style=&quot;font-size: 30px;&quot;&gt;192.168.100.40&lt;/font&gt;" style="text;html=1;align=center;verticalAlign=middle;whiteSpace=wrap;rounded=0;fontSize=20;" parent="1" vertex="1">
          <mxGeometry x="-370" y="495" width="215" height="30" as="geometry" />
        </mxCell>
        <mxCell id="E72xjIkjWtBL2fp1cBYB-56" value="&lt;font style=&quot;font-size: 30px;&quot;&gt;192.168.100.1&lt;/font&gt;&lt;div&gt;&lt;font style=&quot;font-size: 30px;&quot;&gt;192.168.255.100&lt;/font&gt;&lt;/div&gt;&lt;div&gt;&lt;font style=&quot;font-size: 30px;&quot;&gt;VM - Firewall&lt;/font&gt;&lt;/div&gt;" style="text;html=1;align=center;verticalAlign=middle;whiteSpace=wrap;rounded=0;fontSize=20;" parent="1" vertex="1">
          <mxGeometry x="-584.5" y="815" width="250" height="140" as="geometry" />
        </mxCell>
        <mxCell id="-fsY6YWZY8oDsnwDN8Gz-4" value="" style="fontColor=#0066CC;verticalAlign=top;verticalLabelPosition=bottom;labelPosition=center;align=center;html=1;outlineConnect=0;fillColor=#CCCCCC;strokeColor=#6881B3;gradientColor=none;gradientDirection=north;strokeWidth=2;shape=mxgraph.networks.pc;" parent="1" vertex="1">
          <mxGeometry x="-722.5" y="360" width="160" height="120" as="geometry" />
        </mxCell>
        <mxCell id="-fsY6YWZY8oDsnwDN8Gz-5" value="&lt;span style=&quot;font-size: 20px;&quot;&gt;VM - Honeypot&lt;/span&gt;" style="text;html=1;align=center;verticalAlign=middle;whiteSpace=wrap;rounded=0;" parent="1" vertex="1">
          <mxGeometry x="-682.5" y="375" width="120" height="70" as="geometry" />
        </mxCell>
        <mxCell id="-fsY6YWZY8oDsnwDN8Gz-6" value="&lt;font style=&quot;font-size: 30px;&quot;&gt;192.168.100.10&lt;/font&gt;" style="text;html=1;align=center;verticalAlign=middle;whiteSpace=wrap;rounded=0;fontSize=20;" parent="1" vertex="1">
          <mxGeometry x="-740" y="500" width="195" height="30" as="geometry" />
        </mxCell>
        <mxCell id="-fsY6YWZY8oDsnwDN8Gz-7" value="" style="endArrow=classic;startArrow=classic;html=1;rounded=0;exitX=1;exitY=1;exitDx=0;exitDy=0;entryX=0.5;entryY=0;entryDx=0;entryDy=0;entryPerimeter=0;" parent="1" source="-fsY6YWZY8oDsnwDN8Gz-5" target="E72xjIkjWtBL2fp1cBYB-4" edge="1">
          <mxGeometry width="50" height="50" relative="1" as="geometry">
            <mxPoint x="-579.5" y="535" as="sourcePoint" />
            <mxPoint x="-489.5" y="535" as="targetPoint" />
          </mxGeometry>
        </mxCell>
        <mxCell id="-fsY6YWZY8oDsnwDN8Gz-8" value="" style="endArrow=classic;startArrow=classic;html=1;rounded=0;exitX=0.5;exitY=0;exitDx=0;exitDy=0;entryX=0;entryY=0.85;entryDx=0;entryDy=0;entryPerimeter=0;exitPerimeter=0;" parent="1" source="E72xjIkjWtBL2fp1cBYB-4" target="E72xjIkjWtBL2fp1cBYB-3" edge="1">
          <mxGeometry width="50" height="50" relative="1" as="geometry">
            <mxPoint x="-289.5" y="525" as="sourcePoint" />
            <mxPoint x="-199.5" y="525" as="targetPoint" />
          </mxGeometry>
        </mxCell>
      </root>
    </mxGraphModel>
  </diagram>
  <diagram id="GYM9Qn3dFi8zSAUkqG6s" name="Chi Tiết">
    <mxGraphModel dx="2562" dy="1252" grid="1" gridSize="10" guides="1" tooltips="1" connect="1" arrows="1" fold="1" page="1" pageScale="1" pageWidth="827" pageHeight="1169" math="0" shadow="0">
      <root>
        <mxCell id="0" />
        <mxCell id="1" parent="0" />
        <mxCell id="iIJb_Gb1oXng-KHHK2H2-1" value="" style="rounded=1;whiteSpace=wrap;html=1;" vertex="1" parent="1">
          <mxGeometry x="870" y="500" width="560" height="406.54" as="geometry" />
        </mxCell>
        <mxCell id="iIJb_Gb1oXng-KHHK2H2-2" value="" style="fontColor=#0066CC;verticalAlign=top;verticalLabelPosition=bottom;labelPosition=center;align=center;html=1;outlineConnect=0;fillColor=#CCCCCC;strokeColor=#6881B3;gradientColor=none;gradientDirection=north;strokeWidth=2;shape=mxgraph.networks.pc;" vertex="1" parent="1">
          <mxGeometry x="460" y="1090" width="160" height="120" as="geometry" />
        </mxCell>
        <mxCell id="iIJb_Gb1oXng-KHHK2H2-3" value="" style="fontColor=#0066CC;verticalAlign=top;verticalLabelPosition=bottom;labelPosition=center;align=center;html=1;outlineConnect=0;fillColor=#CCCCCC;strokeColor=#6881B3;gradientColor=none;gradientDirection=north;strokeWidth=2;shape=mxgraph.networks.pc;" vertex="1" parent="1">
          <mxGeometry x="660" y="1090" width="160" height="120" as="geometry" />
        </mxCell>
        <mxCell id="iIJb_Gb1oXng-KHHK2H2-4" value="" style="fontColor=#0066CC;verticalAlign=top;verticalLabelPosition=bottom;labelPosition=center;align=center;html=1;outlineConnect=0;fillColor=#CCCCCC;strokeColor=#6881B3;gradientColor=none;gradientDirection=north;strokeWidth=2;shape=mxgraph.networks.firewall;" vertex="1" parent="1">
          <mxGeometry x="540" y="640" width="200" height="200" as="geometry" />
        </mxCell>
        <mxCell id="iIJb_Gb1oXng-KHHK2H2-5" value="" style="fontColor=#0066CC;verticalAlign=top;verticalLabelPosition=bottom;labelPosition=center;align=center;html=1;outlineConnect=0;fillColor=#CCCCCC;strokeColor=#6881B3;gradientColor=none;gradientDirection=north;strokeWidth=2;shape=mxgraph.networks.web_server;" vertex="1" parent="1">
          <mxGeometry x="280" y="680" width="120" height="120" as="geometry" />
        </mxCell>
        <mxCell id="iIJb_Gb1oXng-KHHK2H2-6" value="" style="endArrow=none;dashed=1;html=1;dashPattern=1 3;strokeWidth=2;rounded=0;" edge="1" parent="1">
          <mxGeometry width="50" height="50" relative="1" as="geometry">
            <mxPoint x="240" y="640" as="sourcePoint" />
            <mxPoint x="240" y="640" as="targetPoint" />
            <Array as="points">
              <mxPoint x="440" y="640" />
              <mxPoint x="440" y="840" />
              <mxPoint x="240" y="840" />
            </Array>
          </mxGeometry>
        </mxCell>
        <mxCell id="iIJb_Gb1oXng-KHHK2H2-8" value="" style="fontColor=#0066CC;verticalAlign=top;verticalLabelPosition=bottom;labelPosition=center;align=center;html=1;outlineConnect=0;fillColor=#CCCCCC;strokeColor=#6881B3;gradientColor=none;gradientDirection=north;strokeWidth=2;shape=mxgraph.networks.switch;" vertex="1" parent="1">
          <mxGeometry x="541" y="920" width="200" height="80" as="geometry" />
        </mxCell>
        <mxCell id="iIJb_Gb1oXng-KHHK2H2-9" value="&lt;span style=&quot;font-size: 20px;&quot;&gt;DVWA&lt;/span&gt;" style="text;html=1;align=center;verticalAlign=middle;whiteSpace=wrap;rounded=0;" vertex="1" parent="1">
          <mxGeometry x="280" y="650" width="120" height="30" as="geometry" />
        </mxCell>
        <mxCell id="iIJb_Gb1oXng-KHHK2H2-10" value="&lt;font style=&quot;font-size: 30px;&quot;&gt;DMZ&lt;/font&gt;" style="text;html=1;align=center;verticalAlign=middle;whiteSpace=wrap;rounded=0;" vertex="1" parent="1">
          <mxGeometry x="280" y="810" width="120" height="30" as="geometry" />
        </mxCell>
        <mxCell id="iIJb_Gb1oXng-KHHK2H2-11" value="&lt;span style=&quot;font-size: 20px;&quot;&gt;User&lt;/span&gt;" style="text;html=1;align=center;verticalAlign=middle;whiteSpace=wrap;rounded=0;" vertex="1" parent="1">
          <mxGeometry x="500" y="1100" width="120" height="70" as="geometry" />
        </mxCell>
        <mxCell id="iIJb_Gb1oXng-KHHK2H2-12" value="&lt;font style=&quot;font-size: 20px;&quot;&gt;LDAP&lt;/font&gt;" style="text;html=1;align=center;verticalAlign=middle;whiteSpace=wrap;rounded=0;" vertex="1" parent="1">
          <mxGeometry x="700" y="1100" width="120" height="70" as="geometry" />
        </mxCell>
        <mxCell id="iIJb_Gb1oXng-KHHK2H2-13" value="&lt;font style=&quot;font-size: 30px;&quot;&gt;192.168.100.0/24&lt;/font&gt;" style="text;html=1;align=center;verticalAlign=middle;whiteSpace=wrap;rounded=0;fontSize=20;" vertex="1" parent="1">
          <mxGeometry x="515" y="1240" width="250" height="30" as="geometry" />
        </mxCell>
        <mxCell id="iIJb_Gb1oXng-KHHK2H2-14" value="" style="endArrow=classic;startArrow=classic;html=1;rounded=0;entryX=0.88;entryY=0.5;entryDx=0;entryDy=0;entryPerimeter=0;" edge="1" parent="1" source="iIJb_Gb1oXng-KHHK2H2-4" target="iIJb_Gb1oXng-KHHK2H2-5">
          <mxGeometry width="50" height="50" relative="1" as="geometry">
            <mxPoint x="630" y="1030" as="sourcePoint" />
            <mxPoint x="340" y="740" as="targetPoint" />
          </mxGeometry>
        </mxCell>
        <mxCell id="iIJb_Gb1oXng-KHHK2H2-15" value="" style="endArrow=classic;startArrow=classic;html=1;rounded=0;entryX=0.5;entryY=1;entryDx=0;entryDy=0;entryPerimeter=0;exitX=0.5;exitY=0;exitDx=0;exitDy=0;exitPerimeter=0;" edge="1" parent="1" source="iIJb_Gb1oXng-KHHK2H2-36" target="iIJb_Gb1oXng-KHHK2H2-4">
          <mxGeometry width="50" height="50" relative="1" as="geometry">
            <mxPoint x="460" y="830" as="sourcePoint" />
            <mxPoint x="510" y="780" as="targetPoint" />
          </mxGeometry>
        </mxCell>
        <mxCell id="iIJb_Gb1oXng-KHHK2H2-16" value="" style="endArrow=classic;startArrow=classic;html=1;rounded=0;entryX=0.5;entryY=1;entryDx=0;entryDy=0;entryPerimeter=0;exitX=0.5;exitY=0.07;exitDx=0;exitDy=0;exitPerimeter=0;" edge="1" parent="1" source="iIJb_Gb1oXng-KHHK2H2-2" target="iIJb_Gb1oXng-KHHK2H2-8">
          <mxGeometry width="50" height="50" relative="1" as="geometry">
            <mxPoint x="381" y="910" as="sourcePoint" />
            <mxPoint x="431" y="860" as="targetPoint" />
          </mxGeometry>
        </mxCell>
        <mxCell id="iIJb_Gb1oXng-KHHK2H2-17" value="" style="endArrow=classic;startArrow=classic;html=1;rounded=0;exitX=0.5;exitY=0.07;exitDx=0;exitDy=0;exitPerimeter=0;" edge="1" parent="1" source="iIJb_Gb1oXng-KHHK2H2-3">
          <mxGeometry width="50" height="50" relative="1" as="geometry">
            <mxPoint x="381" y="1040" as="sourcePoint" />
            <mxPoint x="641" y="1000" as="targetPoint" />
          </mxGeometry>
        </mxCell>
        <mxCell id="iIJb_Gb1oXng-KHHK2H2-18" value="" style="html=1;outlineConnect=0;fillColor=#CCCCCC;strokeColor=#6881B3;gradientColor=none;gradientDirection=north;strokeWidth=2;shape=mxgraph.networks.cloud;fontColor=#ffffff;" vertex="1" parent="1">
          <mxGeometry x="541" y="280" width="200" height="120" as="geometry" />
        </mxCell>
        <mxCell id="iIJb_Gb1oXng-KHHK2H2-19" value="" style="endArrow=classic;startArrow=classic;html=1;rounded=0;entryX=0.5;entryY=1;entryDx=0;entryDy=0;entryPerimeter=0;" edge="1" parent="1" source="iIJb_Gb1oXng-KHHK2H2-4" target="iIJb_Gb1oXng-KHHK2H2-33">
          <mxGeometry width="50" height="50" relative="1" as="geometry">
            <mxPoint x="560" y="790" as="sourcePoint" />
            <mxPoint x="610" y="740" as="targetPoint" />
          </mxGeometry>
        </mxCell>
        <mxCell id="iIJb_Gb1oXng-KHHK2H2-23" value="&lt;font style=&quot;font-size: 30px;&quot;&gt;Internet&lt;/font&gt;" style="text;html=1;align=center;verticalAlign=middle;whiteSpace=wrap;rounded=0;fontSize=20;" vertex="1" parent="1">
          <mxGeometry x="540" y="320" width="200" height="80" as="geometry" />
        </mxCell>
        <mxCell id="iIJb_Gb1oXng-KHHK2H2-24" value="&lt;font style=&quot;font-size: 20px;&quot;&gt;IP Table&lt;/font&gt;" style="rounded=1;whiteSpace=wrap;html=1;" vertex="1" parent="1">
          <mxGeometry x="909.73" y="530" width="120" height="80" as="geometry" />
        </mxCell>
        <mxCell id="iIJb_Gb1oXng-KHHK2H2-25" value="&lt;font style=&quot;font-size: 20px;&quot;&gt;ClamAV&lt;/font&gt;" style="rounded=1;whiteSpace=wrap;html=1;" vertex="1" parent="1">
          <mxGeometry x="1029.73" y="790.0000000000001" width="120" height="80" as="geometry" />
        </mxCell>
        <mxCell id="iIJb_Gb1oXng-KHHK2H2-26" value="&lt;span style=&quot;font-size: 20px;&quot;&gt;Snort&lt;/span&gt;" style="rounded=1;whiteSpace=wrap;html=1;" vertex="1" parent="1">
          <mxGeometry x="908.73" y="678.46" width="121" height="81.54" as="geometry" />
        </mxCell>
        <mxCell id="iIJb_Gb1oXng-KHHK2H2-27" value="&lt;font style=&quot;font-size: 20px;&quot;&gt;Squid&lt;/font&gt;" style="rounded=1;whiteSpace=wrap;html=1;" vertex="1" parent="1">
          <mxGeometry x="1250" y="530" width="120" height="80" as="geometry" />
        </mxCell>
        <mxCell id="iIJb_Gb1oXng-KHHK2H2-29" value="" style="endArrow=classic;html=1;rounded=0;entryX=0.5;entryY=0;entryDx=0;entryDy=0;exitX=0.5;exitY=1;exitDx=0;exitDy=0;" edge="1" parent="1" source="iIJb_Gb1oXng-KHHK2H2-24" target="iIJb_Gb1oXng-KHHK2H2-26">
          <mxGeometry width="50" height="50" relative="1" as="geometry">
            <mxPoint x="959.23" y="725" as="sourcePoint" />
            <mxPoint x="1069.23" y="695" as="targetPoint" />
          </mxGeometry>
        </mxCell>
        <mxCell id="iIJb_Gb1oXng-KHHK2H2-30" value="" style="endArrow=classic;html=1;rounded=0;" edge="1" parent="1">
          <mxGeometry width="50" height="50" relative="1" as="geometry">
            <mxPoint x="1130" y="985" as="sourcePoint" />
            <mxPoint x="1130" y="985" as="targetPoint" />
          </mxGeometry>
        </mxCell>
        <mxCell id="iIJb_Gb1oXng-KHHK2H2-32" value="&lt;font style=&quot;font-size: 30px;&quot;&gt;NGFW&lt;/font&gt;" style="text;html=1;align=center;verticalAlign=middle;whiteSpace=wrap;rounded=0;" vertex="1" parent="1">
          <mxGeometry x="1090" y="650" width="120" height="80" as="geometry" />
        </mxCell>
        <mxCell id="iIJb_Gb1oXng-KHHK2H2-33" value="" style="fontColor=#0066CC;verticalAlign=top;verticalLabelPosition=bottom;labelPosition=center;align=center;html=1;outlineConnect=0;fillColor=#CCCCCC;strokeColor=#6881B3;gradientColor=none;gradientDirection=north;strokeWidth=2;shape=mxgraph.networks.router;" vertex="1" parent="1">
          <mxGeometry x="555" y="478.46000000000004" width="170" height="80" as="geometry" />
        </mxCell>
        <mxCell id="iIJb_Gb1oXng-KHHK2H2-34" value="" style="endArrow=classic;startArrow=classic;html=1;rounded=0;exitX=0.5;exitY=0;exitDx=0;exitDy=0;exitPerimeter=0;entryX=0.5;entryY=1;entryDx=0;entryDy=0;" edge="1" parent="1" source="iIJb_Gb1oXng-KHHK2H2-37" target="iIJb_Gb1oXng-KHHK2H2-23">
          <mxGeometry width="50" height="50" relative="1" as="geometry">
            <mxPoint x="630" y="470" as="sourcePoint" />
            <mxPoint x="960" y="500" as="targetPoint" />
          </mxGeometry>
        </mxCell>
        <mxCell id="iIJb_Gb1oXng-KHHK2H2-35" value="" style="endArrow=classic;startArrow=classic;html=1;rounded=0;entryX=0.5;entryY=1;entryDx=0;entryDy=0;entryPerimeter=0;exitX=0.5;exitY=0;exitDx=0;exitDy=0;exitPerimeter=0;" edge="1" parent="1" source="iIJb_Gb1oXng-KHHK2H2-8" target="iIJb_Gb1oXng-KHHK2H2-36">
          <mxGeometry width="50" height="50" relative="1" as="geometry">
            <mxPoint x="641" y="920" as="sourcePoint" />
            <mxPoint x="640" y="840" as="targetPoint" />
          </mxGeometry>
        </mxCell>
        <mxCell id="iIJb_Gb1oXng-KHHK2H2-36" value="&lt;font style=&quot;font-size: 30px;&quot;&gt;Switch&lt;/font&gt;" style="text;html=1;align=center;verticalAlign=middle;whiteSpace=wrap;rounded=0;" vertex="1" parent="1">
          <mxGeometry x="581" y="880" width="120" height="40" as="geometry" />
        </mxCell>
        <mxCell id="iIJb_Gb1oXng-KHHK2H2-37" value="&lt;font style=&quot;font-size: 30px;&quot;&gt;Router&lt;/font&gt;" style="text;html=1;align=center;verticalAlign=middle;whiteSpace=wrap;rounded=0;" vertex="1" parent="1">
          <mxGeometry x="610" y="450" width="60" height="30" as="geometry" />
        </mxCell>
        <mxCell id="iIJb_Gb1oXng-KHHK2H2-42" value="" style="endArrow=classic;html=1;rounded=0;exitX=1;exitY=0.5;exitDx=0;exitDy=0;entryX=0;entryY=0.5;entryDx=0;entryDy=0;" edge="1" parent="1" source="iIJb_Gb1oXng-KHHK2H2-24" target="iIJb_Gb1oXng-KHHK2H2-27">
          <mxGeometry width="50" height="50" relative="1" as="geometry">
            <mxPoint x="920" y="985" as="sourcePoint" />
            <mxPoint x="970" y="935" as="targetPoint" />
          </mxGeometry>
        </mxCell>
        <mxCell id="iIJb_Gb1oXng-KHHK2H2-45" value="&lt;font style=&quot;font-size: 30px;&quot;&gt;Mũi tên&lt;/font&gt;" style="swimlane;fontStyle=0;childLayout=stackLayout;horizontal=1;startSize=30;horizontalStack=0;resizeParent=1;resizeParentMax=0;resizeLast=0;collapsible=1;marginBottom=0;whiteSpace=wrap;html=1;" vertex="1" parent="1">
          <mxGeometry x="908.73" y="1020" width="440" height="120" as="geometry">
            <mxRectangle x="720" y="600" width="60" height="30" as="alternateBounds" />
          </mxGeometry>
        </mxCell>
        <mxCell id="iIJb_Gb1oXng-KHHK2H2-50" value="" style="endArrow=classic;startArrow=classic;html=1;rounded=0;" edge="1" parent="iIJb_Gb1oXng-KHHK2H2-45">
          <mxGeometry width="50" height="50" relative="1" as="geometry">
            <mxPoint x="220" y="75" as="sourcePoint" />
            <mxPoint x="380" y="75" as="targetPoint" />
          </mxGeometry>
        </mxCell>
        <mxCell id="iIJb_Gb1oXng-KHHK2H2-52" value="" style="endArrow=classic;html=1;rounded=0;" edge="1" parent="iIJb_Gb1oXng-KHHK2H2-45">
          <mxGeometry width="50" height="50" relative="1" as="geometry">
            <mxPoint x="220" y="45" as="sourcePoint" />
            <mxPoint x="380" y="45" as="targetPoint" />
            <Array as="points">
              <mxPoint x="300" y="45" />
            </Array>
          </mxGeometry>
        </mxCell>
        <mxCell id="iIJb_Gb1oXng-KHHK2H2-53" value="" style="curved=1;endArrow=classic;html=1;rounded=0;" edge="1" parent="iIJb_Gb1oXng-KHHK2H2-45">
          <mxGeometry width="50" height="50" relative="1" as="geometry">
            <mxPoint x="220" y="100" as="sourcePoint" />
            <mxPoint x="380" y="110" as="targetPoint" />
            <Array as="points">
              <mxPoint x="270" y="120" />
              <mxPoint x="290" y="90" />
              <mxPoint x="310" y="80" />
            </Array>
          </mxGeometry>
        </mxCell>
        <mxCell id="iIJb_Gb1oXng-KHHK2H2-48" value="&lt;font style=&quot;font-size: 20px;&quot;&gt;Trực tiếp Một chiều&lt;/font&gt;" style="text;strokeColor=none;fillColor=none;align=left;verticalAlign=middle;spacingLeft=4;spacingRight=4;overflow=hidden;points=[[0,0.5],[1,0.5]];portConstraint=eastwest;rotatable=0;whiteSpace=wrap;html=1;" vertex="1" parent="iIJb_Gb1oXng-KHHK2H2-45">
          <mxGeometry y="30" width="440" height="30" as="geometry" />
        </mxCell>
        <mxCell id="iIJb_Gb1oXng-KHHK2H2-49" value="&lt;font style=&quot;font-size: 20px;&quot;&gt;Tương tác&lt;/font&gt;" style="text;strokeColor=none;fillColor=none;align=left;verticalAlign=middle;spacingLeft=4;spacingRight=4;overflow=hidden;points=[[0,0.5],[1,0.5]];portConstraint=eastwest;rotatable=0;whiteSpace=wrap;html=1;" vertex="1" parent="iIJb_Gb1oXng-KHHK2H2-45">
          <mxGeometry y="60" width="440" height="30" as="geometry" />
        </mxCell>
        <mxCell id="iIJb_Gb1oXng-KHHK2H2-51" value="&lt;font style=&quot;font-size: 20px;&quot;&gt;Mở rộng&lt;/font&gt;" style="text;html=1;align=left;verticalAlign=middle;whiteSpace=wrap;rounded=0;" vertex="1" parent="iIJb_Gb1oXng-KHHK2H2-45">
          <mxGeometry y="90" width="440" height="30" as="geometry" />
        </mxCell>
        <mxCell id="iIJb_Gb1oXng-KHHK2H2-55" value="&lt;font style=&quot;font-size: 30px;&quot;&gt;192.168.255.0/24&lt;/font&gt;" style="text;html=1;align=center;verticalAlign=middle;whiteSpace=wrap;rounded=0;" vertex="1" parent="1">
          <mxGeometry x="260" y="440" width="280" height="80" as="geometry" />
        </mxCell>
        <mxCell id="-O1dNORhqAZXogGS6q6E-2" value="" style="curved=1;endArrow=classic;html=1;rounded=0;exitX=1;exitY=0;exitDx=0;exitDy=0;exitPerimeter=0;entryX=0.021;entryY=0.073;entryDx=0;entryDy=0;entryPerimeter=0;" edge="1" parent="1" source="iIJb_Gb1oXng-KHHK2H2-4" target="iIJb_Gb1oXng-KHHK2H2-1">
          <mxGeometry width="50" height="50" relative="1" as="geometry">
            <mxPoint x="800" y="580" as="sourcePoint" />
            <mxPoint x="850" y="530" as="targetPoint" />
            <Array as="points">
              <mxPoint x="830" y="690" />
              <mxPoint x="800" y="530" />
            </Array>
          </mxGeometry>
        </mxCell>
        <mxCell id="-O1dNORhqAZXogGS6q6E-5" value="&lt;font style=&quot;font-size: 30px;&quot;&gt;192.168.200.0/24&lt;/font&gt;" style="text;html=1;align=center;verticalAlign=middle;whiteSpace=wrap;rounded=0;fontSize=20;" vertex="1" parent="1">
          <mxGeometry x="220" y="850" width="240" height="30" as="geometry" />
        </mxCell>
        <mxCell id="EsDIAxnDP7oPouNgpr4S-1" value="&lt;span style=&quot;font-size: 20px;&quot;&gt;C-icap&lt;/span&gt;" style="rounded=1;whiteSpace=wrap;html=1;" vertex="1" parent="1">
          <mxGeometry x="1250" y="790" width="120" height="80" as="geometry" />
        </mxCell>
        <mxCell id="EsDIAxnDP7oPouNgpr4S-2" value="" style="endArrow=classic;html=1;rounded=0;entryX=0.5;entryY=0;entryDx=0;entryDy=0;exitX=0.5;exitY=1;exitDx=0;exitDy=0;" edge="1" parent="1" source="iIJb_Gb1oXng-KHHK2H2-27" target="EsDIAxnDP7oPouNgpr4S-1">
          <mxGeometry width="50" height="50" relative="1" as="geometry">
            <mxPoint x="1080" y="760" as="sourcePoint" />
            <mxPoint x="990" y="778" as="targetPoint" />
          </mxGeometry>
        </mxCell>
        <mxCell id="EsDIAxnDP7oPouNgpr4S-3" value="" style="endArrow=classic;html=1;rounded=0;entryX=1;entryY=0.5;entryDx=0;entryDy=0;exitX=0;exitY=0.5;exitDx=0;exitDy=0;" edge="1" parent="1" source="EsDIAxnDP7oPouNgpr4S-1" target="iIJb_Gb1oXng-KHHK2H2-25">
          <mxGeometry width="50" height="50" relative="1" as="geometry">
            <mxPoint x="1271" y="780" as="sourcePoint" />
            <mxPoint x="1150" y="818" as="targetPoint" />
          </mxGeometry>
        </mxCell>
      </root>
    </mxGraphModel>
  </diagram>
</mxfile>
